<svg width="640" height="841" viewBox="0 0 640 841" fill="none" xmlns="http://www.w3.org/2000/svg">
<path d="M640 0H0V841H640V0Z" fill="#FFD2DA"/>
<path d="M141.78 99.8C141.78 102.36 141.18 104.7 139.98 106.82C138.82 108.9 137.04 110.58 134.64 111.86C132.28 113.1 129.38 113.72 125.94 113.72H120.12V128H108.36V85.7H125.94C129.34 85.7 132.22 86.3 134.58 87.5C136.98 88.7 138.78 90.36 139.98 92.48C141.18 94.6 141.78 97.04 141.78 99.8ZM124.8 104.36C128.12 104.36 129.78 102.84 129.78 99.8C129.78 96.72 128.12 95.18 124.8 95.18H120.12V104.36H124.8ZM158.265 95.12V102.02H171.765V110.96H158.265V118.58H173.565V128H146.505V85.7H173.565V95.12H158.265ZM200.796 128L192.396 112.4H191.136V128H179.376V85.7H197.916C201.316 85.7 204.196 86.3 206.556 87.5C208.916 88.66 210.696 90.28 211.896 92.36C213.096 94.4 213.696 96.7 213.696 99.26C213.696 102.14 212.896 104.68 211.296 106.88C209.736 109.04 207.436 110.58 204.396 111.5L213.936 128H200.796ZM191.136 104.36H196.956C198.556 104.36 199.756 103.98 200.556 103.22C201.356 102.46 201.756 101.36 201.756 99.92C201.756 98.56 201.336 97.5 200.496 96.74C199.696 95.94 198.516 95.54 196.956 95.54H191.136V104.36ZM235.004 128.42C230.084 128.42 226.044 127.26 222.884 124.94C219.724 122.58 218.024 119.22 217.784 114.86H230.324C230.444 116.34 230.884 117.42 231.644 118.1C232.404 118.78 233.384 119.12 234.584 119.12C235.664 119.12 236.544 118.86 237.224 118.34C237.944 117.78 238.304 117.02 238.304 116.06C238.304 114.82 237.724 113.86 236.564 113.18C235.404 112.5 233.524 111.74 230.924 110.9C228.164 109.98 225.924 109.1 224.204 108.26C222.524 107.38 221.044 106.12 219.764 104.48C218.524 102.8 217.904 100.62 217.904 97.94C217.904 95.22 218.584 92.9 219.944 90.98C221.304 89.02 223.184 87.54 225.584 86.54C227.984 85.54 230.704 85.04 233.744 85.04C238.664 85.04 242.584 86.2 245.504 88.52C248.464 90.8 250.044 94.02 250.244 98.18H237.464C237.424 96.9 237.024 95.94 236.264 95.3C235.544 94.66 234.604 94.34 233.444 94.34C232.564 94.34 231.844 94.6 231.284 95.12C230.724 95.64 230.444 96.38 230.444 97.34C230.444 98.14 230.744 98.84 231.344 99.44C231.984 100 232.764 100.5 233.684 100.94C234.604 101.34 235.964 101.86 237.764 102.5C240.444 103.42 242.644 104.34 244.364 105.26C246.124 106.14 247.624 107.4 248.864 109.04C250.144 110.64 250.784 112.68 250.784 115.16C250.784 117.68 250.144 119.94 248.864 121.94C247.624 123.94 245.804 125.52 243.404 126.68C241.044 127.84 238.244 128.42 235.004 128.42ZM276.531 128.42C272.571 128.42 268.931 127.5 265.611 125.66C262.291 123.78 259.651 121.2 257.691 117.92C255.771 114.6 254.811 110.86 254.811 106.7C254.811 102.54 255.771 98.82 257.691 95.54C259.651 92.22 262.291 89.64 265.611 87.8C268.931 85.96 272.571 85.04 276.531 85.04C280.531 85.04 284.171 85.96 287.451 87.8C290.771 89.64 293.391 92.22 295.311 95.54C297.231 98.82 298.191 102.54 298.191 106.7C298.191 110.86 297.231 114.6 295.311 117.92C293.391 121.2 290.771 123.78 287.451 125.66C284.131 127.5 280.491 128.42 276.531 128.42ZM276.531 117.5C279.531 117.5 281.891 116.52 283.611 114.56C285.371 112.6 286.251 109.98 286.251 106.7C286.251 103.34 285.371 100.7 283.611 98.78C281.891 96.82 279.531 95.84 276.531 95.84C273.491 95.84 271.111 96.82 269.391 98.78C267.671 100.7 266.811 103.34 266.811 106.7C266.811 110.02 267.671 112.66 269.391 114.62C271.111 116.54 273.491 117.5 276.531 117.5ZM342.657 128H330.897L315.237 104.36V128H303.477V85.7H315.237L330.897 109.64V85.7H342.657V128ZM376.116 121.1H361.116L358.836 128H346.476L361.896 85.7H375.456L390.816 128H378.396L376.116 121.1ZM373.176 112.1L368.616 98.42L364.116 112.1H373.176ZM406.409 119H419.549V128H394.649V85.7H406.409V119ZM435.882 85.7V128H424.122V85.7H435.882ZM474.439 85.7V95.06H463.159V128H451.399V95.06H440.239V85.7H474.439ZM517.25 85.7L502.37 114.56V128H490.55V114.56L475.67 85.7H489.11L496.55 102.02L503.99 85.7H517.25Z" fill="#411E1E"/>
<rect x="329" y="217" width="271" height="22" rx="11" fill="white"/>
<rect x="329" y="217" width="237" height="22" rx="11" fill="#411E1E"/>
<path d="M40.05 222.5C40.05 220.44 40.51 218.6 41.43 216.98C42.37 215.34 43.64 214.07 45.24 213.17C46.86 212.25 48.67 211.79 50.67 211.79C53.01 211.79 55.06 212.39 56.82 213.59C58.58 214.79 59.81 216.45 60.51 218.57H55.68C55.2 217.57 54.52 216.82 53.64 216.32C52.78 215.82 51.78 215.57 50.64 215.57C49.42 215.57 48.33 215.86 47.37 216.44C46.43 217 45.69 217.8 45.15 218.84C44.63 219.88 44.37 221.1 44.37 222.5C44.37 223.88 44.63 225.1 45.15 226.16C45.69 227.2 46.43 228.01 47.37 228.59C48.33 229.15 49.42 229.43 50.64 229.43C51.78 229.43 52.78 229.18 53.64 228.68C54.52 228.16 55.2 227.4 55.68 226.4H60.51C59.81 228.54 58.58 230.21 56.82 231.41C55.08 232.59 53.03 233.18 50.67 233.18C48.67 233.18 46.86 232.73 45.24 231.83C43.64 230.91 42.37 229.64 41.43 228.02C40.51 226.4 40.05 224.56 40.05 222.5ZM71.4773 233.27C69.8773 233.27 68.4373 232.92 67.1573 232.22C65.8773 231.5 64.8673 230.49 64.1273 229.19C63.4073 227.89 63.0473 226.39 63.0473 224.69C63.0473 222.99 63.4173 221.49 64.1573 220.19C64.9173 218.89 65.9473 217.89 67.2473 217.19C68.5473 216.47 69.9973 216.11 71.5973 216.11C73.1973 216.11 74.6473 216.47 75.9473 217.19C77.2473 217.89 78.2673 218.89 79.0073 220.19C79.7673 221.49 80.1473 222.99 80.1473 224.69C80.1473 226.39 79.7573 227.89 78.9773 229.19C78.2173 230.49 77.1773 231.5 75.8573 232.22C74.5573 232.92 73.0973 233.27 71.4773 233.27ZM71.4773 229.61C72.2373 229.61 72.9473 229.43 73.6073 229.07C74.2873 228.69 74.8273 228.13 75.2273 227.39C75.6273 226.65 75.8273 225.75 75.8273 224.69C75.8273 223.11 75.4073 221.9 74.5673 221.06C73.7473 220.2 72.7373 219.77 71.5373 219.77C70.3373 219.77 69.3273 220.2 68.5073 221.06C67.7073 221.9 67.3073 223.11 67.3073 224.69C67.3073 226.27 67.6973 227.49 68.4773 228.35C69.2773 229.19 70.2773 229.61 71.4773 229.61ZM103.868 216.14C105.908 216.14 107.548 216.77 108.788 218.03C110.048 219.27 110.678 221.01 110.678 223.25V233H106.478V223.82C106.478 222.52 106.148 221.53 105.488 220.85C104.828 220.15 103.928 219.8 102.788 219.8C101.648 219.8 100.738 220.15 100.058 220.85C99.3982 221.53 99.0682 222.52 99.0682 223.82V233H94.8682V223.82C94.8682 222.52 94.5382 221.53 93.8782 220.85C93.2182 220.15 92.3182 219.8 91.1782 219.8C90.0182 219.8 89.0982 220.15 88.4182 220.85C87.7582 221.53 87.4282 222.52 87.4282 223.82V233H83.2282V216.38H87.4282V218.39C87.9682 217.69 88.6582 217.14 89.4982 216.74C90.3582 216.34 91.2982 216.14 92.3182 216.14C93.6182 216.14 94.7782 216.42 95.7982 216.98C96.8182 217.52 97.6082 218.3 98.1682 219.32C98.7082 218.36 99.4882 217.59 100.508 217.01C101.548 216.43 102.668 216.14 103.868 216.14ZM135.304 216.14C137.344 216.14 138.984 216.77 140.224 218.03C141.484 219.27 142.114 221.01 142.114 223.25V233H137.914V223.82C137.914 222.52 137.584 221.53 136.924 220.85C136.264 220.15 135.364 219.8 134.224 219.8C133.084 219.8 132.174 220.15 131.494 220.85C130.834 221.53 130.504 222.52 130.504 223.82V233H126.304V223.82C126.304 222.52 125.974 221.53 125.314 220.85C124.654 220.15 123.754 219.8 122.614 219.8C121.454 219.8 120.534 220.15 119.854 220.85C119.194 221.53 118.864 222.52 118.864 223.82V233H114.664V216.38H118.864V218.39C119.404 217.69 120.094 217.14 120.934 216.74C121.794 216.34 122.734 216.14 123.754 216.14C125.054 216.14 126.214 216.42 127.234 216.98C128.254 217.52 129.044 218.3 129.604 219.32C130.144 218.36 130.924 217.59 131.944 217.01C132.984 216.43 134.104 216.14 135.304 216.14ZM161.789 216.38V233H157.559V230.9C157.019 231.62 156.309 232.19 155.429 232.61C154.569 233.01 153.629 233.21 152.609 233.21C151.309 233.21 150.159 232.94 149.159 232.4C148.159 231.84 147.369 231.03 146.789 229.97C146.229 228.89 145.949 227.61 145.949 226.13V216.38H150.149V225.53C150.149 226.85 150.479 227.87 151.139 228.59C151.799 229.29 152.699 229.64 153.839 229.64C154.999 229.64 155.909 229.29 156.569 228.59C157.229 227.87 157.559 226.85 157.559 225.53V216.38H161.789ZM175.143 216.14C177.123 216.14 178.723 216.77 179.943 218.03C181.163 219.27 181.773 221.01 181.773 223.25V233H177.573V223.82C177.573 222.5 177.243 221.49 176.583 220.79C175.923 220.07 175.023 219.71 173.883 219.71C172.723 219.71 171.803 220.07 171.123 220.79C170.463 221.49 170.133 222.5 170.133 223.82V233H165.933V216.38H170.133V218.45C170.693 217.73 171.403 217.17 172.263 216.77C173.143 216.35 174.103 216.14 175.143 216.14ZM187.897 214.4C187.157 214.4 186.537 214.17 186.037 213.71C185.557 213.23 185.317 212.64 185.317 211.94C185.317 211.24 185.557 210.66 186.037 210.2C186.537 209.72 187.157 209.48 187.897 209.48C188.637 209.48 189.247 209.72 189.727 210.2C190.227 210.66 190.477 211.24 190.477 211.94C190.477 212.64 190.227 213.23 189.727 213.71C189.247 214.17 188.637 214.4 187.897 214.4ZM189.967 216.38V233H185.767V216.38H189.967ZM193.037 224.69C193.037 222.97 193.387 221.47 194.087 220.19C194.787 218.89 195.757 217.89 196.997 217.19C198.237 216.47 199.657 216.11 201.257 216.11C203.317 216.11 205.017 216.63 206.357 217.67C207.717 218.69 208.627 220.13 209.087 221.99H204.557C204.317 221.27 203.907 220.71 203.327 220.31C202.767 219.89 202.067 219.68 201.227 219.68C200.027 219.68 199.077 220.12 198.377 221C197.677 221.86 197.327 223.09 197.327 224.69C197.327 226.27 197.677 227.5 198.377 228.38C199.077 229.24 200.027 229.67 201.227 229.67C202.927 229.67 204.037 228.91 204.557 227.39H209.087C208.627 229.19 207.717 230.62 206.357 231.68C204.997 232.74 203.297 233.27 201.257 233.27C199.657 233.27 198.237 232.92 196.997 232.22C195.757 231.5 194.787 230.5 194.087 229.22C193.387 227.92 193.037 226.41 193.037 224.69ZM211.084 224.63C211.084 222.95 211.414 221.46 212.074 220.16C212.754 218.86 213.664 217.86 214.804 217.16C215.964 216.46 217.254 216.11 218.674 216.11C219.914 216.11 220.994 216.36 221.914 216.86C222.854 217.36 223.604 217.99 224.164 218.75V216.38H228.394V233H224.164V230.57C223.624 231.35 222.874 232 221.914 232.52C220.974 233.02 219.884 233.27 218.644 233.27C217.244 233.27 215.964 232.91 214.804 232.19C213.664 231.47 212.754 230.46 212.074 229.16C211.414 227.84 211.084 226.33 211.084 224.63ZM224.164 224.69C224.164 223.67 223.964 222.8 223.564 222.08C223.164 221.34 222.624 220.78 221.944 220.4C221.264 220 220.534 219.8 219.754 219.8C218.974 219.8 218.254 219.99 217.594 220.37C216.934 220.75 216.394 221.31 215.974 222.05C215.574 222.77 215.374 223.63 215.374 224.63C215.374 225.63 215.574 226.51 215.974 227.27C216.394 228.01 216.934 228.58 217.594 228.98C218.274 229.38 218.994 229.58 219.754 229.58C220.534 229.58 221.264 229.39 221.944 229.01C222.624 228.61 223.164 228.05 223.564 227.33C223.964 226.59 224.164 225.71 224.164 224.69ZM237.386 219.83V227.87C237.386 228.43 237.516 228.84 237.776 229.1C238.056 229.34 238.516 229.46 239.156 229.46H241.106V233H238.466C234.926 233 233.156 231.28 233.156 227.84V219.83H231.176V216.38H233.156V212.27H237.386V216.38H241.106V219.83H237.386ZM251.507 233.27C249.907 233.27 248.467 232.92 247.187 232.22C245.907 231.5 244.897 230.49 244.157 229.19C243.437 227.89 243.077 226.39 243.077 224.69C243.077 222.99 243.447 221.49 244.187 220.19C244.947 218.89 245.977 217.89 247.277 217.19C248.577 216.47 250.027 216.11 251.627 216.11C253.227 216.11 254.677 216.47 255.977 217.19C257.277 217.89 258.297 218.89 259.037 220.19C259.797 221.49 260.177 222.99 260.177 224.69C260.177 226.39 259.787 227.89 259.007 229.19C258.247 230.49 257.207 231.5 255.887 232.22C254.587 232.92 253.127 233.27 251.507 233.27ZM251.507 229.61C252.267 229.61 252.977 229.43 253.637 229.07C254.317 228.69 254.857 228.13 255.257 227.39C255.657 226.65 255.857 225.75 255.857 224.69C255.857 223.11 255.437 221.9 254.597 221.06C253.777 220.2 252.767 219.77 251.567 219.77C250.367 219.77 249.357 220.2 248.537 221.06C247.737 221.9 247.337 223.11 247.337 224.69C247.337 226.27 247.727 227.49 248.507 228.35C249.307 229.19 250.307 229.61 251.507 229.61ZM272.468 216.14C274.448 216.14 276.048 216.77 277.268 218.03C278.488 219.27 279.098 221.01 279.098 223.25V233H274.898V223.82C274.898 222.5 274.568 221.49 273.908 220.79C273.248 220.07 272.348 219.71 271.208 219.71C270.048 219.71 269.128 220.07 268.448 220.79C267.788 221.49 267.458 222.5 267.458 223.82V233H263.258V216.38H267.458V218.45C268.018 217.73 268.728 217.17 269.588 216.77C270.468 216.35 271.428 216.14 272.468 216.14Z" fill="#411E1E"/>
<rect x="329" y="299" width="271" height="22" rx="11" fill="white"/>
<rect x="329" y="300" width="237" height="22" rx="11" fill="#411E1E"/>
<path d="M53.91 318.01H45.57L44.19 322H39.78L47.31 301.03H52.2L59.73 322H55.29L53.91 318.01ZM52.77 314.65L49.74 305.89L46.71 314.65H52.77ZM61.4646 313.63C61.4646 311.95 61.7946 310.46 62.4546 309.16C63.1346 307.86 64.0546 306.86 65.2146 306.16C66.3746 305.46 67.6646 305.11 69.0846 305.11C70.1646 305.11 71.1946 305.35 72.1746 305.83C73.1546 306.29 73.9346 306.91 74.5146 307.69V299.8H78.7746V322H74.5146V319.54C73.9946 320.36 73.2646 321.02 72.3246 321.52C71.3846 322.02 70.2946 322.27 69.0546 322.27C67.6546 322.27 66.3746 321.91 65.2146 321.19C64.0546 320.47 63.1346 319.46 62.4546 318.16C61.7946 316.84 61.4646 315.33 61.4646 313.63ZM74.5446 313.69C74.5446 312.67 74.3446 311.8 73.9446 311.08C73.5446 310.34 73.0046 309.78 72.3246 309.4C71.6446 309 70.9146 308.8 70.1346 308.8C69.3546 308.8 68.6346 308.99 67.9746 309.37C67.3146 309.75 66.7746 310.31 66.3546 311.05C65.9546 311.77 65.7546 312.63 65.7546 313.63C65.7546 314.63 65.9546 315.51 66.3546 316.27C66.7746 317.01 67.3146 317.58 67.9746 317.98C68.6546 318.38 69.3746 318.58 70.1346 318.58C70.9146 318.58 71.6446 318.39 72.3246 318.01C73.0046 317.61 73.5446 317.05 73.9446 316.33C74.3446 315.59 74.5446 314.71 74.5446 313.69ZM81.7966 313.63C81.7966 311.95 82.1266 310.46 82.7866 309.16C83.4666 307.86 84.3766 306.86 85.5166 306.16C86.6766 305.46 87.9666 305.11 89.3866 305.11C90.6266 305.11 91.7066 305.36 92.6266 305.86C93.5666 306.36 94.3166 306.99 94.8766 307.75V305.38H99.1066V322H94.8766V319.57C94.3366 320.35 93.5866 321 92.6266 321.52C91.6866 322.02 90.5966 322.27 89.3566 322.27C87.9566 322.27 86.6766 321.91 85.5166 321.19C84.3766 320.47 83.4666 319.46 82.7866 318.16C82.1266 316.84 81.7966 315.33 81.7966 313.63ZM94.8766 313.69C94.8766 312.67 94.6766 311.8 94.2766 311.08C93.8766 310.34 93.3366 309.78 92.6566 309.4C91.9766 309 91.2466 308.8 90.4666 308.8C89.6866 308.8 88.9666 308.99 88.3066 309.37C87.6466 309.75 87.1066 310.31 86.6866 311.05C86.2866 311.77 86.0866 312.63 86.0866 313.63C86.0866 314.63 86.2866 315.51 86.6866 316.27C87.1066 317.01 87.6466 317.58 88.3066 317.98C88.9866 318.38 89.7066 318.58 90.4666 318.58C91.2466 318.58 91.9766 318.39 92.6566 318.01C93.3366 317.61 93.8766 317.05 94.2766 316.33C94.6766 315.59 94.8766 314.71 94.8766 313.69ZM107.409 307.78C107.949 307.02 108.689 306.39 109.629 305.89C110.589 305.37 111.679 305.11 112.899 305.11C114.319 305.11 115.599 305.46 116.739 306.16C117.899 306.86 118.809 307.86 119.469 309.16C120.149 310.44 120.489 311.93 120.489 313.63C120.489 315.33 120.149 316.84 119.469 318.16C118.809 319.46 117.899 320.47 116.739 321.19C115.599 321.91 114.319 322.27 112.899 322.27C111.679 322.27 110.599 322.02 109.659 321.52C108.739 321.02 107.989 320.39 107.409 319.63V329.92H103.209V305.38H107.409V307.78ZM116.199 313.63C116.199 312.63 115.989 311.77 115.569 311.05C115.169 310.31 114.629 309.75 113.949 309.37C113.289 308.99 112.569 308.8 111.789 308.8C111.029 308.8 110.309 309 109.629 309.4C108.969 309.78 108.429 310.34 108.009 311.08C107.609 311.82 107.409 312.69 107.409 313.69C107.409 314.69 107.609 315.56 108.009 316.3C108.429 317.04 108.969 317.61 109.629 318.01C110.309 318.39 111.029 318.58 111.789 318.58C112.569 318.58 113.289 318.38 113.949 317.98C114.629 317.58 115.169 317.01 115.569 316.27C115.989 315.53 116.199 314.65 116.199 313.63ZM128.431 308.83V316.87C128.431 317.43 128.561 317.84 128.821 318.1C129.101 318.34 129.561 318.46 130.201 318.46H132.151V322H129.511C125.971 322 124.201 320.28 124.201 316.84V308.83H122.221V305.38H124.201V301.27H128.431V305.38H132.151V308.83H128.431ZM134.092 313.63C134.092 311.95 134.422 310.46 135.082 309.16C135.762 307.86 136.672 306.86 137.812 306.16C138.972 305.46 140.262 305.11 141.682 305.11C142.922 305.11 144.002 305.36 144.922 305.86C145.862 306.36 146.612 306.99 147.172 307.75V305.38H151.402V322H147.172V319.57C146.632 320.35 145.882 321 144.922 321.52C143.982 322.02 142.892 322.27 141.652 322.27C140.252 322.27 138.972 321.91 137.812 321.19C136.672 320.47 135.762 319.46 135.082 318.16C134.422 316.84 134.092 315.33 134.092 313.63ZM147.172 313.69C147.172 312.67 146.972 311.8 146.572 311.08C146.172 310.34 145.632 309.78 144.952 309.4C144.272 309 143.542 308.8 142.762 308.8C141.982 308.8 141.262 308.99 140.602 309.37C139.942 309.75 139.402 310.31 138.982 311.05C138.582 311.77 138.382 312.63 138.382 313.63C138.382 314.63 138.582 315.51 138.982 316.27C139.402 317.01 139.942 317.58 140.602 317.98C141.282 318.38 142.002 318.58 142.762 318.58C143.542 318.58 144.272 318.39 144.952 318.01C145.632 317.61 146.172 317.05 146.572 316.33C146.972 315.59 147.172 314.71 147.172 313.69ZM159.704 307.81C160.244 307.01 160.984 306.36 161.924 305.86C162.884 305.36 163.974 305.11 165.194 305.11C166.614 305.11 167.894 305.46 169.034 306.16C170.194 306.86 171.104 307.86 171.764 309.16C172.444 310.44 172.784 311.93 172.784 313.63C172.784 315.33 172.444 316.84 171.764 318.16C171.104 319.46 170.194 320.47 169.034 321.19C167.894 321.91 166.614 322.27 165.194 322.27C163.954 322.27 162.864 322.03 161.924 321.55C161.004 321.05 160.264 320.41 159.704 319.63V322H155.504V299.8H159.704V307.81ZM168.494 313.63C168.494 312.63 168.284 311.77 167.864 311.05C167.464 310.31 166.924 309.75 166.244 309.37C165.584 308.99 164.864 308.8 164.084 308.8C163.324 308.8 162.604 309 161.924 309.4C161.264 309.78 160.724 310.34 160.304 311.08C159.904 311.82 159.704 312.69 159.704 313.69C159.704 314.69 159.904 315.56 160.304 316.3C160.724 317.04 161.264 317.61 161.924 318.01C162.604 318.39 163.324 318.58 164.084 318.58C164.864 318.58 165.584 318.38 166.244 317.98C166.924 317.58 167.464 317.01 167.864 316.27C168.284 315.53 168.494 314.65 168.494 313.63ZM177.966 303.4C177.226 303.4 176.606 303.17 176.106 302.71C175.626 302.23 175.386 301.64 175.386 300.94C175.386 300.24 175.626 299.66 176.106 299.2C176.606 298.72 177.226 298.48 177.966 298.48C178.706 298.48 179.316 298.72 179.796 299.2C180.296 299.66 180.546 300.24 180.546 300.94C180.546 301.64 180.296 302.23 179.796 302.71C179.316 303.17 178.706 303.4 177.966 303.4ZM180.036 305.38V322H175.836V305.38H180.036ZM188.385 299.8V322H184.185V299.8H188.385ZM194.665 303.4C193.925 303.4 193.305 303.17 192.805 302.71C192.325 302.23 192.085 301.64 192.085 300.94C192.085 300.24 192.325 299.66 192.805 299.2C193.305 298.72 193.925 298.48 194.665 298.48C195.405 298.48 196.015 298.72 196.495 299.2C196.995 299.66 197.245 300.24 197.245 300.94C197.245 301.64 196.995 302.23 196.495 302.71C196.015 303.17 195.405 303.4 194.665 303.4ZM196.735 305.38V322H192.535V305.38H196.735ZM205.774 308.83V316.87C205.774 317.43 205.904 317.84 206.164 318.1C206.444 318.34 206.904 318.46 207.544 318.46H209.494V322H206.854C203.314 322 201.544 320.28 201.544 316.84V308.83H199.564V305.38H201.544V301.27H205.774V305.38H209.494V308.83H205.774ZM228.415 305.38L218.125 329.86H213.655L217.255 321.58L210.595 305.38H215.305L219.595 316.99L223.945 305.38H228.415Z" fill="#411E1E"/>
<rect x="329" y="393" width="271" height="22" rx="11" fill="white"/>
<rect x="329" y="393" width="167" height="22" rx="11" fill="#411E1E"/>
<path d="M40.05 404.5C40.05 402.44 40.51 400.6 41.43 398.98C42.37 397.34 43.64 396.07 45.24 395.17C46.86 394.25 48.67 393.79 50.67 393.79C53.01 393.79 55.06 394.39 56.82 395.59C58.58 396.79 59.81 398.45 60.51 400.57H55.68C55.2 399.57 54.52 398.82 53.64 398.32C52.78 397.82 51.78 397.57 50.64 397.57C49.42 397.57 48.33 397.86 47.37 398.44C46.43 399 45.69 399.8 45.15 400.84C44.63 401.88 44.37 403.1 44.37 404.5C44.37 405.88 44.63 407.1 45.15 408.16C45.69 409.2 46.43 410.01 47.37 410.59C48.33 411.15 49.42 411.43 50.64 411.43C51.78 411.43 52.78 411.18 53.64 410.68C54.52 410.16 55.2 409.4 55.68 408.4H60.51C59.81 410.54 58.58 412.21 56.82 413.41C55.08 414.59 53.03 415.18 50.67 415.18C48.67 415.18 46.86 414.73 45.24 413.83C43.64 412.91 42.37 411.64 41.43 410.02C40.51 408.4 40.05 406.56 40.05 404.5ZM71.4773 415.27C69.8773 415.27 68.4373 414.92 67.1573 414.22C65.8773 413.5 64.8673 412.49 64.1273 411.19C63.4073 409.89 63.0473 408.39 63.0473 406.69C63.0473 404.99 63.4173 403.49 64.1573 402.19C64.9173 400.89 65.9473 399.89 67.2473 399.19C68.5473 398.47 69.9973 398.11 71.5973 398.11C73.1973 398.11 74.6473 398.47 75.9473 399.19C77.2473 399.89 78.2673 400.89 79.0073 402.19C79.7673 403.49 80.1473 404.99 80.1473 406.69C80.1473 408.39 79.7573 409.89 78.9773 411.19C78.2173 412.49 77.1773 413.5 75.8573 414.22C74.5573 414.92 73.0973 415.27 71.4773 415.27ZM71.4773 411.61C72.2373 411.61 72.9473 411.43 73.6073 411.07C74.2873 410.69 74.8273 410.13 75.2273 409.39C75.6273 408.65 75.8273 407.75 75.8273 406.69C75.8273 405.11 75.4073 403.9 74.5673 403.06C73.7473 402.2 72.7373 401.77 71.5373 401.77C70.3373 401.77 69.3273 402.2 68.5073 403.06C67.7073 403.9 67.3073 405.11 67.3073 406.69C67.3073 408.27 67.6973 409.49 68.4773 410.35C69.2773 411.19 70.2773 411.61 71.4773 411.61ZM92.4382 398.14C94.4182 398.14 96.0182 398.77 97.2382 400.03C98.4582 401.27 99.0682 403.01 99.0682 405.25V415H94.8682V405.82C94.8682 404.5 94.5382 403.49 93.8782 402.79C93.2182 402.07 92.3182 401.71 91.1782 401.71C90.0182 401.71 89.0982 402.07 88.4182 402.79C87.7582 403.49 87.4282 404.5 87.4282 405.82V415H83.2282V398.38H87.4282V400.45C87.9882 399.73 88.6982 399.17 89.5582 398.77C90.4382 398.35 91.3982 398.14 92.4382 398.14ZM110.682 401.83H107.772V415H103.512V401.83H101.622V398.38H103.512V397.54C103.512 395.5 104.092 394 105.252 393.04C106.412 392.08 108.162 391.63 110.502 391.69V395.23C109.482 395.21 108.772 395.38 108.372 395.74C107.972 396.1 107.772 396.75 107.772 397.69V398.38H110.682V401.83ZM115.534 396.4C114.794 396.4 114.174 396.17 113.674 395.71C113.194 395.23 112.954 394.64 112.954 393.94C112.954 393.24 113.194 392.66 113.674 392.2C114.174 391.72 114.794 391.48 115.534 391.48C116.274 391.48 116.884 391.72 117.364 392.2C117.864 392.66 118.114 393.24 118.114 393.94C118.114 394.64 117.864 395.23 117.364 395.71C116.884 396.17 116.274 396.4 115.534 396.4ZM117.604 398.38V415H113.404V398.38H117.604ZM120.674 406.63C120.674 404.95 121.004 403.46 121.664 402.16C122.344 400.86 123.264 399.86 124.424 399.16C125.584 398.46 126.874 398.11 128.294 398.11C129.374 398.11 130.404 398.35 131.384 398.83C132.364 399.29 133.144 399.91 133.724 400.69V392.8H137.984V415H133.724V412.54C133.204 413.36 132.474 414.02 131.534 414.52C130.594 415.02 129.504 415.27 128.264 415.27C126.864 415.27 125.584 414.91 124.424 414.19C123.264 413.47 122.344 412.46 121.664 411.16C121.004 409.84 120.674 408.33 120.674 406.63ZM133.754 406.69C133.754 405.67 133.554 404.8 133.154 404.08C132.754 403.34 132.214 402.78 131.534 402.4C130.854 402 130.124 401.8 129.344 401.8C128.564 401.8 127.844 401.99 127.184 402.37C126.524 402.75 125.984 403.31 125.564 404.05C125.164 404.77 124.964 405.63 124.964 406.63C124.964 407.63 125.164 408.51 125.564 409.27C125.984 410.01 126.524 410.58 127.184 410.98C127.864 411.38 128.584 411.58 129.344 411.58C130.124 411.58 130.854 411.39 131.534 411.01C132.214 410.61 132.754 410.05 133.154 409.33C133.554 408.59 133.754 407.71 133.754 406.69ZM157.536 406.33C157.536 406.93 157.496 407.47 157.416 407.95H145.266C145.366 409.15 145.786 410.09 146.526 410.77C147.266 411.45 148.176 411.79 149.256 411.79C150.816 411.79 151.926 411.12 152.586 409.78H157.116C156.636 411.38 155.716 412.7 154.356 413.74C152.996 414.76 151.326 415.27 149.346 415.27C147.746 415.27 146.306 414.92 145.026 414.22C143.766 413.5 142.776 412.49 142.056 411.19C141.356 409.89 141.006 408.39 141.006 406.69C141.006 404.97 141.356 403.46 142.056 402.16C142.756 400.86 143.736 399.86 144.996 399.16C146.256 398.46 147.706 398.11 149.346 398.11C150.926 398.11 152.336 398.45 153.576 399.13C154.836 399.81 155.806 400.78 156.486 402.04C157.186 403.28 157.536 404.71 157.536 406.33ZM153.186 405.13C153.166 404.05 152.776 403.19 152.016 402.55C151.256 401.89 150.326 401.56 149.226 401.56C148.186 401.56 147.306 401.88 146.586 402.52C145.886 403.14 145.456 404.01 145.296 405.13H153.186ZM169.811 398.14C171.791 398.14 173.391 398.77 174.611 400.03C175.831 401.27 176.441 403.01 176.441 405.25V415H172.241V405.82C172.241 404.5 171.911 403.49 171.251 402.79C170.591 402.07 169.691 401.71 168.551 401.71C167.391 401.71 166.471 402.07 165.791 402.79C165.131 403.49 164.801 404.5 164.801 405.82V415H160.601V398.38H164.801V400.45C165.361 399.73 166.071 399.17 166.931 398.77C167.811 398.35 168.771 398.14 169.811 398.14ZM179.355 406.69C179.355 404.97 179.705 403.47 180.405 402.19C181.105 400.89 182.075 399.89 183.315 399.19C184.555 398.47 185.975 398.11 187.575 398.11C189.635 398.11 191.335 398.63 192.675 399.67C194.035 400.69 194.945 402.13 195.405 403.99H190.875C190.635 403.27 190.225 402.71 189.645 402.31C189.085 401.89 188.385 401.68 187.545 401.68C186.345 401.68 185.395 402.12 184.695 403C183.995 403.86 183.645 405.09 183.645 406.69C183.645 408.27 183.995 409.5 184.695 410.38C185.395 411.24 186.345 411.67 187.545 411.67C189.245 411.67 190.355 410.91 190.875 409.39H195.405C194.945 411.19 194.035 412.62 192.675 413.68C191.315 414.74 189.615 415.27 187.575 415.27C185.975 415.27 184.555 414.92 183.315 414.22C182.075 413.5 181.105 412.5 180.405 411.22C179.705 409.92 179.355 408.41 179.355 406.69ZM213.932 406.33C213.932 406.93 213.892 407.47 213.812 407.95H201.662C201.762 409.15 202.182 410.09 202.922 410.77C203.662 411.45 204.572 411.79 205.652 411.79C207.212 411.79 208.322 411.12 208.982 409.78H213.512C213.032 411.38 212.112 412.7 210.752 413.74C209.392 414.76 207.722 415.27 205.742 415.27C204.142 415.27 202.702 414.92 201.422 414.22C200.162 413.5 199.172 412.49 198.452 411.19C197.752 409.89 197.402 408.39 197.402 406.69C197.402 404.97 197.752 403.46 198.452 402.16C199.152 400.86 200.132 399.86 201.392 399.16C202.652 398.46 204.102 398.11 205.742 398.11C207.322 398.11 208.732 398.45 209.972 399.13C211.232 399.81 212.202 400.78 212.882 402.04C213.582 403.28 213.932 404.71 213.932 406.33ZM209.582 405.13C209.562 404.05 209.172 403.19 208.412 402.55C207.652 401.89 206.722 401.56 205.622 401.56C204.582 401.56 203.702 401.88 202.982 402.52C202.282 403.14 201.852 404.01 201.692 405.13H209.582Z" fill="#411E1E"/>
<rect x="329" y="486" width="271" height="22" rx="11" fill="white"/>
<rect x="329" y="486" width="253" height="22" rx="11" fill="#411E1E"/>
<path d="M48.39 487.06C50.59 487.06 52.52 487.49 54.18 488.35C55.86 489.21 57.15 490.44 58.05 492.04C58.97 493.62 59.43 495.46 59.43 497.56C59.43 499.66 58.97 501.5 58.05 503.08C57.15 504.64 55.86 505.85 54.18 506.71C52.52 507.57 50.59 508 48.39 508H41.07V487.06H48.39ZM48.24 504.43C50.44 504.43 52.14 503.83 53.34 502.63C54.54 501.43 55.14 499.74 55.14 497.56C55.14 495.38 54.54 493.68 53.34 492.46C52.14 491.22 50.44 490.6 48.24 490.6H45.27V504.43H48.24ZM78.0239 499.33C78.0239 499.93 77.9839 500.47 77.9039 500.95H65.7539C65.8539 502.15 66.2739 503.09 67.0139 503.77C67.7539 504.45 68.6639 504.79 69.7439 504.79C71.3039 504.79 72.4139 504.12 73.0739 502.78H77.6039C77.1239 504.38 76.2039 505.7 74.8439 506.74C73.4839 507.76 71.8139 508.27 69.8339 508.27C68.2339 508.27 66.7939 507.92 65.5139 507.22C64.2539 506.5 63.2639 505.49 62.5439 504.19C61.8439 502.89 61.4939 501.39 61.4939 499.69C61.4939 497.97 61.8439 496.46 62.5439 495.16C63.2439 493.86 64.2239 492.86 65.4839 492.16C66.7439 491.46 68.1939 491.11 69.8339 491.11C71.4139 491.11 72.8239 491.45 74.0639 492.13C75.3239 492.81 76.2939 493.78 76.9739 495.04C77.6739 496.28 78.0239 497.71 78.0239 499.33ZM73.6739 498.13C73.6539 497.05 73.2639 496.19 72.5039 495.55C71.7439 494.89 70.8139 494.56 69.7139 494.56C68.6739 494.56 67.7939 494.88 67.0739 495.52C66.3739 496.14 65.9439 497.01 65.7839 498.13H73.6739ZM85.9795 494.83V502.87C85.9795 503.43 86.1095 503.84 86.3695 504.1C86.6495 504.34 87.1095 504.46 87.7495 504.46H89.6995V508H87.0595C83.5195 508 81.7495 506.28 81.7495 502.84V494.83H79.7695V491.38H81.7495V487.27H85.9795V491.38H89.6995V494.83H85.9795ZM108.17 499.33C108.17 499.93 108.13 500.47 108.05 500.95H95.9004C96.0004 502.15 96.4204 503.09 97.1604 503.77C97.9004 504.45 98.8104 504.79 99.8904 504.79C101.45 504.79 102.56 504.12 103.22 502.78H107.75C107.27 504.38 106.35 505.7 104.99 506.74C103.63 507.76 101.96 508.27 99.9804 508.27C98.3804 508.27 96.9404 507.92 95.6604 507.22C94.4004 506.5 93.4104 505.49 92.6904 504.19C91.9904 502.89 91.6404 501.39 91.6404 499.69C91.6404 497.97 91.9904 496.46 92.6904 495.16C93.3904 493.86 94.3704 492.86 95.6304 492.16C96.8904 491.46 98.3404 491.11 99.9804 491.11C101.56 491.11 102.97 491.45 104.21 492.13C105.47 492.81 106.44 493.78 107.12 495.04C107.82 496.28 108.17 497.71 108.17 499.33ZM103.82 498.13C103.8 497.05 103.41 496.19 102.65 495.55C101.89 494.89 100.96 494.56 99.8604 494.56C98.8204 494.56 97.9404 494.88 97.2204 495.52C96.5204 496.14 96.0904 497.01 95.9304 498.13H103.82ZM115.436 493.96C115.976 493.08 116.676 492.39 117.536 491.89C118.416 491.39 119.416 491.14 120.536 491.14V495.55H119.426C118.106 495.55 117.106 495.86 116.426 496.48C115.766 497.1 115.436 498.18 115.436 499.72V508H111.236V491.38H115.436V493.96ZM144.005 491.14C146.045 491.14 147.685 491.77 148.925 493.03C150.185 494.27 150.815 496.01 150.815 498.25V508H146.615V498.82C146.615 497.52 146.285 496.53 145.625 495.85C144.965 495.15 144.065 494.8 142.925 494.8C141.785 494.8 140.875 495.15 140.195 495.85C139.535 496.53 139.205 497.52 139.205 498.82V508H135.005V498.82C135.005 497.52 134.675 496.53 134.015 495.85C133.355 495.15 132.455 494.8 131.315 494.8C130.155 494.8 129.235 495.15 128.555 495.85C127.895 496.53 127.565 497.52 127.565 498.82V508H123.365V491.38H127.565V493.39C128.105 492.69 128.795 492.14 129.635 491.74C130.495 491.34 131.435 491.14 132.455 491.14C133.755 491.14 134.915 491.42 135.935 491.98C136.955 492.52 137.745 493.3 138.305 494.32C138.845 493.36 139.625 492.59 140.645 492.01C141.685 491.43 142.805 491.14 144.005 491.14ZM156.93 489.4C156.19 489.4 155.57 489.17 155.07 488.71C154.59 488.23 154.35 487.64 154.35 486.94C154.35 486.24 154.59 485.66 155.07 485.2C155.57 484.72 156.19 484.48 156.93 484.48C157.67 484.48 158.28 484.72 158.76 485.2C159.26 485.66 159.51 486.24 159.51 486.94C159.51 487.64 159.26 488.23 158.76 488.71C158.28 489.17 157.67 489.4 156.93 489.4ZM159 491.38V508H154.8V491.38H159ZM172.36 491.14C174.34 491.14 175.94 491.77 177.16 493.03C178.38 494.27 178.99 496.01 178.99 498.25V508H174.79V498.82C174.79 497.5 174.46 496.49 173.8 495.79C173.14 495.07 172.24 494.71 171.1 494.71C169.94 494.71 169.02 495.07 168.34 495.79C167.68 496.49 167.35 497.5 167.35 498.82V508H163.15V491.38H167.35V493.45C167.91 492.73 168.62 492.17 169.48 491.77C170.36 491.35 171.32 491.14 172.36 491.14ZM181.904 499.63C181.904 497.95 182.234 496.46 182.894 495.16C183.574 493.86 184.484 492.86 185.624 492.16C186.784 491.46 188.074 491.11 189.494 491.11C190.734 491.11 191.814 491.36 192.734 491.86C193.674 492.36 194.424 492.99 194.984 493.75V491.38H199.214V508H194.984V505.57C194.444 506.35 193.694 507 192.734 507.52C191.794 508.02 190.704 508.27 189.464 508.27C188.064 508.27 186.784 507.91 185.624 507.19C184.484 506.47 183.574 505.46 182.894 504.16C182.234 502.84 181.904 501.33 181.904 499.63ZM194.984 499.69C194.984 498.67 194.784 497.8 194.384 497.08C193.984 496.34 193.444 495.78 192.764 495.4C192.084 495 191.354 494.8 190.574 494.8C189.794 494.8 189.074 494.99 188.414 495.37C187.754 495.75 187.214 496.31 186.794 497.05C186.394 497.77 186.194 498.63 186.194 499.63C186.194 500.63 186.394 501.51 186.794 502.27C187.214 503.01 187.754 503.58 188.414 503.98C189.094 504.38 189.814 504.58 190.574 504.58C191.354 504.58 192.084 504.39 192.764 504.01C193.444 503.61 193.984 503.05 194.384 502.33C194.784 501.59 194.984 500.71 194.984 499.69ZM208.206 494.83V502.87C208.206 503.43 208.336 503.84 208.596 504.1C208.876 504.34 209.336 504.46 209.976 504.46H211.926V508H209.286C205.746 508 203.976 506.28 203.976 502.84V494.83H201.996V491.38H203.976V487.27H208.206V491.38H211.926V494.83H208.206ZM217.077 489.4C216.337 489.4 215.717 489.17 215.217 488.71C214.737 488.23 214.497 487.64 214.497 486.94C214.497 486.24 214.737 485.66 215.217 485.2C215.717 484.72 216.337 484.48 217.077 484.48C217.817 484.48 218.427 484.72 218.907 485.2C219.407 485.66 219.657 486.24 219.657 486.94C219.657 487.64 219.407 488.23 218.907 488.71C218.427 489.17 217.817 489.4 217.077 489.4ZM219.147 491.38V508H214.947V491.38H219.147ZM230.677 508.27C229.077 508.27 227.637 507.92 226.357 507.22C225.077 506.5 224.067 505.49 223.327 504.19C222.607 502.89 222.247 501.39 222.247 499.69C222.247 497.99 222.617 496.49 223.357 495.19C224.117 493.89 225.147 492.89 226.447 492.19C227.747 491.47 229.197 491.11 230.797 491.11C232.397 491.11 233.847 491.47 235.147 492.19C236.447 492.89 237.467 493.89 238.207 495.19C238.967 496.49 239.347 497.99 239.347 499.69C239.347 501.39 238.957 502.89 238.177 504.19C237.417 505.49 236.377 506.5 235.057 507.22C233.757 507.92 232.297 508.27 230.677 508.27ZM230.677 504.61C231.437 504.61 232.147 504.43 232.807 504.07C233.487 503.69 234.027 503.13 234.427 502.39C234.827 501.65 235.027 500.75 235.027 499.69C235.027 498.11 234.607 496.9 233.767 496.06C232.947 495.2 231.937 494.77 230.737 494.77C229.537 494.77 228.527 495.2 227.707 496.06C226.907 496.9 226.507 498.11 226.507 499.69C226.507 501.27 226.897 502.49 227.677 503.35C228.477 504.19 229.477 504.61 230.677 504.61ZM251.637 491.14C253.617 491.14 255.217 491.77 256.437 493.03C257.657 494.27 258.267 496.01 258.267 498.25V508H254.067V498.82C254.067 497.5 253.737 496.49 253.077 495.79C252.417 495.07 251.517 494.71 250.377 494.71C249.217 494.71 248.297 495.07 247.617 495.79C246.957 496.49 246.627 497.5 246.627 498.82V508H242.427V491.38H246.627V493.45C247.187 492.73 247.897 492.17 248.757 491.77C249.637 491.35 250.597 491.14 251.637 491.14Z" fill="#411E1E"/>
<rect x="329" y="578" width="271" height="22" rx="11" fill="white"/>
<rect x="329" y="578" width="236" height="22" rx="11" fill="#411E1E"/>
<path d="M41.0361 578.672H48.7852C50.4062 578.672 51.7979 578.916 52.96 579.404C54.1221 579.893 55.0156 580.615 55.6406 581.572C56.2656 582.529 56.5781 583.706 56.5781 585.103C56.5781 586.206 56.3828 587.163 55.9922 587.974C55.6016 588.784 55.0498 589.463 54.3369 590.01C53.6338 590.557 52.8037 590.986 51.8467 591.299L50.5869 591.943H43.7461L43.7168 588.765H48.8291C49.6592 588.765 50.3477 588.618 50.8945 588.325C51.4414 588.032 51.8516 587.627 52.125 587.109C52.4082 586.592 52.5498 586.001 52.5498 585.337C52.5498 584.624 52.4131 584.009 52.1396 583.491C51.8662 582.964 51.4512 582.559 50.8945 582.275C50.3379 581.992 49.6348 581.851 48.7852 581.851H45.0645V600H41.0361V578.672ZM53.0771 600L48.1406 590.449L52.4033 590.435L57.3984 599.795V600H53.0771ZM66.9346 600.293C65.7334 600.293 64.6543 600.098 63.6973 599.707C62.7402 599.316 61.9248 598.774 61.251 598.081C60.5869 597.378 60.0742 596.562 59.7129 595.635C59.3613 594.697 59.1855 593.691 59.1855 592.617V592.031C59.1855 590.811 59.3613 589.702 59.7129 588.706C60.0645 587.7 60.5625 586.836 61.207 586.113C61.8516 585.391 62.623 584.834 63.5215 584.443C64.4199 584.053 65.4111 583.857 66.4951 583.857C67.6182 583.857 68.6094 584.048 69.4688 584.429C70.3281 584.8 71.0459 585.327 71.6221 586.011C72.1982 586.694 72.6328 587.515 72.9258 588.472C73.2188 589.419 73.3652 590.469 73.3652 591.621V593.247H60.9434V590.581H69.5566V590.288C69.5371 589.673 69.4199 589.111 69.2051 588.604C68.9902 588.086 68.6582 587.676 68.209 587.373C67.7598 587.061 67.1787 586.904 66.4658 586.904C65.8896 586.904 65.3867 587.031 64.957 587.285C64.5371 587.529 64.1855 587.881 63.9023 588.34C63.6289 588.789 63.4238 589.326 63.2871 589.951C63.1504 590.576 63.082 591.27 63.082 592.031V592.617C63.082 593.281 63.1699 593.896 63.3457 594.463C63.5312 595.029 63.7998 595.522 64.1514 595.942C64.5127 596.353 64.9424 596.675 65.4404 596.909C65.9482 597.134 66.5244 597.246 67.1689 597.246C67.9795 597.246 68.7119 597.09 69.3662 596.777C70.0303 596.455 70.6064 595.981 71.0947 595.356L73.043 597.378C72.7109 597.866 72.2617 598.335 71.6953 598.784C71.1387 599.233 70.4648 599.6 69.6738 599.883C68.8828 600.156 67.9697 600.293 66.9346 600.293ZM84.6738 595.664C84.6738 595.332 84.5859 595.034 84.4102 594.771C84.2344 594.507 83.9023 594.268 83.4141 594.053C82.9355 593.828 82.2324 593.618 81.3047 593.423C80.4844 593.247 79.7275 593.027 79.0342 592.764C78.3408 592.5 77.7451 592.183 77.2471 591.812C76.749 591.431 76.3584 590.986 76.0752 590.479C75.8018 589.961 75.665 589.365 75.665 588.691C75.665 588.037 75.8066 587.422 76.0898 586.846C76.373 586.26 76.7832 585.747 77.3203 585.308C77.8574 584.858 78.5117 584.507 79.2832 584.253C80.0547 583.989 80.9238 583.857 81.8906 583.857C83.2383 583.857 84.3955 584.077 85.3623 584.517C86.3389 584.956 87.0859 585.562 87.6035 586.333C88.1211 587.095 88.3799 587.954 88.3799 588.911H84.5127C84.5127 588.491 84.415 588.11 84.2197 587.769C84.0342 587.427 83.7461 587.153 83.3555 586.948C82.9648 586.733 82.4717 586.626 81.876 586.626C81.3389 586.626 80.8848 586.714 80.5137 586.89C80.1523 587.065 79.8789 587.295 79.6934 587.578C79.5078 587.861 79.415 588.174 79.415 588.516C79.415 588.77 79.4639 588.999 79.5615 589.204C79.6689 589.399 79.8398 589.58 80.0742 589.746C80.3086 589.912 80.626 590.063 81.0264 590.2C81.4365 590.337 81.9395 590.469 82.5352 590.596C83.7168 590.83 84.7471 591.143 85.626 591.533C86.5146 591.914 87.208 592.422 87.7061 593.057C88.2041 593.691 88.4531 594.502 88.4531 595.488C88.4531 596.191 88.3018 596.836 87.999 597.422C87.6963 597.998 87.2568 598.501 86.6807 598.931C86.1045 599.36 85.416 599.697 84.6152 599.941C83.8145 600.176 82.9111 600.293 81.9053 600.293C80.4502 600.293 79.2197 600.034 78.2139 599.517C77.208 598.989 76.4463 598.325 75.9287 597.524C75.4111 596.714 75.1523 595.874 75.1523 595.005H78.8584C78.8877 595.62 79.0537 596.113 79.3564 596.484C79.6592 596.855 80.04 597.124 80.499 597.29C80.9678 597.446 81.4609 597.524 81.9785 597.524C82.5645 597.524 83.0576 597.446 83.458 597.29C83.8584 597.124 84.1611 596.904 84.3662 596.631C84.5713 596.348 84.6738 596.025 84.6738 595.664ZM95.2646 587.197V606.094H91.3828V584.15H94.9717L95.2646 587.197ZM105.445 591.914V592.222C105.445 593.374 105.309 594.443 105.035 595.43C104.771 596.406 104.381 597.261 103.863 597.993C103.346 598.716 102.701 599.282 101.93 599.692C101.168 600.093 100.289 600.293 99.293 600.293C98.3164 600.293 97.4668 600.107 96.7441 599.736C96.0215 599.355 95.4111 598.818 94.9131 598.125C94.415 597.432 94.0146 596.626 93.7119 595.708C93.4189 594.78 93.1992 593.77 93.0527 592.676V591.694C93.1992 590.532 93.4189 589.478 93.7119 588.53C94.0146 587.573 94.415 586.748 94.9131 586.055C95.4111 585.352 96.0166 584.81 96.7295 584.429C97.4521 584.048 98.2969 583.857 99.2637 583.857C100.27 583.857 101.153 584.048 101.915 584.429C102.687 584.81 103.336 585.356 103.863 586.069C104.391 586.782 104.786 587.632 105.05 588.618C105.313 589.604 105.445 590.703 105.445 591.914ZM101.563 592.222V591.914C101.563 591.211 101.5 590.562 101.373 589.966C101.246 589.36 101.051 588.833 100.787 588.384C100.523 587.925 100.182 587.568 99.7617 587.314C99.3418 587.061 98.834 586.934 98.2383 586.934C97.6426 586.934 97.1299 587.031 96.7002 587.227C96.2705 587.422 95.9189 587.7 95.6455 588.062C95.3721 588.423 95.1572 588.853 95.001 589.351C94.8545 589.839 94.7568 590.381 94.708 590.977V593.408C94.7959 594.131 94.9668 594.78 95.2207 595.356C95.4746 595.933 95.8457 596.392 96.334 596.733C96.832 597.075 97.4766 597.246 98.2676 597.246C98.8633 597.246 99.3711 597.114 99.791 596.851C100.211 596.587 100.553 596.226 100.816 595.767C101.08 595.298 101.271 594.761 101.388 594.155C101.505 593.55 101.563 592.905 101.563 592.222ZM107.584 592.236V591.929C107.584 590.767 107.75 589.697 108.082 588.721C108.414 587.734 108.897 586.88 109.532 586.157C110.167 585.435 110.943 584.873 111.861 584.473C112.779 584.062 113.824 583.857 114.996 583.857C116.188 583.857 117.242 584.062 118.16 584.473C119.088 584.873 119.869 585.435 120.504 586.157C121.139 586.88 121.622 587.734 121.954 588.721C122.286 589.697 122.452 590.767 122.452 591.929V592.236C122.452 593.389 122.286 594.458 121.954 595.444C121.622 596.421 121.139 597.275 120.504 598.008C119.869 598.73 119.093 599.292 118.175 599.692C117.257 600.093 116.207 600.293 115.025 600.293C113.854 600.293 112.804 600.093 111.876 599.692C110.948 599.292 110.167 598.73 109.532 598.008C108.897 597.275 108.414 596.421 108.082 595.444C107.75 594.458 107.584 593.389 107.584 592.236ZM111.451 591.929V592.236C111.451 592.93 111.52 593.579 111.656 594.185C111.793 594.79 112.003 595.322 112.286 595.781C112.569 596.24 112.936 596.602 113.385 596.865C113.844 597.119 114.391 597.246 115.025 597.246C115.65 597.246 116.188 597.119 116.637 596.865C117.086 596.602 117.452 596.24 117.735 595.781C118.028 595.322 118.243 594.79 118.38 594.185C118.517 593.579 118.585 592.93 118.585 592.236V591.929C118.585 591.245 118.517 590.605 118.38 590.01C118.243 589.404 118.028 588.872 117.735 588.413C117.452 587.944 117.081 587.578 116.622 587.314C116.173 587.041 115.631 586.904 114.996 586.904C114.371 586.904 113.834 587.041 113.385 587.314C112.936 587.578 112.569 587.944 112.286 588.413C112.003 588.872 111.793 589.404 111.656 590.01C111.52 590.605 111.451 591.245 111.451 591.929ZM129.059 587.534V600H125.191V584.15H128.824L129.059 587.534ZM128.443 591.504H127.301C127.311 590.352 127.467 589.307 127.77 588.369C128.072 587.432 128.497 586.626 129.044 585.952C129.601 585.278 130.26 584.761 131.021 584.399C131.783 584.038 132.633 583.857 133.57 583.857C134.332 583.857 135.021 583.965 135.636 584.18C136.251 584.395 136.778 584.736 137.218 585.205C137.667 585.674 138.009 586.289 138.243 587.051C138.487 587.803 138.609 588.73 138.609 589.834V600H134.713V589.805C134.713 589.082 134.605 588.511 134.391 588.091C134.186 587.671 133.883 587.373 133.482 587.197C133.092 587.021 132.608 586.934 132.032 586.934C131.437 586.934 130.914 587.056 130.465 587.3C130.025 587.534 129.654 587.861 129.352 588.281C129.059 588.701 128.834 589.185 128.678 589.731C128.521 590.278 128.443 590.869 128.443 591.504ZM150.738 595.664C150.738 595.332 150.65 595.034 150.475 594.771C150.299 594.507 149.967 594.268 149.479 594.053C149 593.828 148.297 593.618 147.369 593.423C146.549 593.247 145.792 593.027 145.099 592.764C144.405 592.5 143.81 592.183 143.312 591.812C142.813 591.431 142.423 590.986 142.14 590.479C141.866 589.961 141.729 589.365 141.729 588.691C141.729 588.037 141.871 587.422 142.154 586.846C142.438 586.26 142.848 585.747 143.385 585.308C143.922 584.858 144.576 584.507 145.348 584.253C146.119 583.989 146.988 583.857 147.955 583.857C149.303 583.857 150.46 584.077 151.427 584.517C152.403 584.956 153.15 585.562 153.668 586.333C154.186 587.095 154.444 587.954 154.444 588.911H150.577C150.577 588.491 150.479 588.11 150.284 587.769C150.099 587.427 149.811 587.153 149.42 586.948C149.029 586.733 148.536 586.626 147.94 586.626C147.403 586.626 146.949 586.714 146.578 586.89C146.217 587.065 145.943 587.295 145.758 587.578C145.572 587.861 145.479 588.174 145.479 588.516C145.479 588.77 145.528 588.999 145.626 589.204C145.733 589.399 145.904 589.58 146.139 589.746C146.373 589.912 146.69 590.063 147.091 590.2C147.501 590.337 148.004 590.469 148.6 590.596C149.781 590.83 150.812 591.143 151.69 591.533C152.579 591.914 153.272 592.422 153.771 593.057C154.269 593.691 154.518 594.502 154.518 595.488C154.518 596.191 154.366 596.836 154.063 597.422C153.761 597.998 153.321 598.501 152.745 598.931C152.169 599.36 151.48 599.697 150.68 599.941C149.879 600.176 148.976 600.293 147.97 600.293C146.515 600.293 145.284 600.034 144.278 599.517C143.272 598.989 142.511 598.325 141.993 597.524C141.476 596.714 141.217 595.874 141.217 595.005H144.923C144.952 595.62 145.118 596.113 145.421 596.484C145.724 596.855 146.104 597.124 146.563 597.29C147.032 597.446 147.525 597.524 148.043 597.524C148.629 597.524 149.122 597.446 149.522 597.29C149.923 597.124 150.226 596.904 150.431 596.631C150.636 596.348 150.738 596.025 150.738 595.664ZM161.563 584.15V600H157.682V584.15H161.563ZM157.418 580.005C157.418 579.429 157.613 578.95 158.004 578.569C158.404 578.188 158.941 577.998 159.615 577.998C160.289 577.998 160.821 578.188 161.212 578.569C161.612 578.95 161.812 579.429 161.812 580.005C161.812 580.571 161.612 581.045 161.212 581.426C160.821 581.807 160.289 581.997 159.615 581.997C158.941 581.997 158.404 581.807 158.004 581.426C157.613 581.045 157.418 580.571 157.418 580.005ZM165.24 577.5H169.122V596.499L168.741 600H165.24V577.5ZM179.317 591.914V592.222C179.317 593.403 179.186 594.487 178.922 595.474C178.668 596.46 178.282 597.314 177.765 598.037C177.247 598.75 176.603 599.307 175.831 599.707C175.069 600.098 174.176 600.293 173.15 600.293C172.174 600.293 171.324 600.103 170.602 599.722C169.889 599.341 169.288 598.804 168.8 598.11C168.312 597.407 167.921 596.582 167.628 595.635C167.335 594.678 167.115 593.633 166.969 592.5V591.665C167.115 590.522 167.335 589.478 167.628 588.53C167.921 587.583 168.312 586.758 168.8 586.055C169.288 585.352 169.889 584.81 170.602 584.429C171.314 584.048 172.154 583.857 173.121 583.857C174.156 583.857 175.06 584.058 175.831 584.458C176.612 584.849 177.257 585.405 177.765 586.128C178.282 586.841 178.668 587.69 178.922 588.677C179.186 589.653 179.317 590.732 179.317 591.914ZM175.436 592.222V591.914C175.436 591.24 175.382 590.605 175.274 590.01C175.167 589.404 174.991 588.872 174.747 588.413C174.503 587.954 174.171 587.593 173.751 587.329C173.331 587.065 172.804 586.934 172.169 586.934C171.563 586.934 171.046 587.036 170.616 587.241C170.196 587.446 169.845 587.729 169.562 588.091C169.288 588.452 169.073 588.877 168.917 589.365C168.771 589.854 168.673 590.381 168.624 590.947V593.232C168.692 593.984 168.854 594.663 169.107 595.269C169.361 595.864 169.737 596.338 170.235 596.689C170.743 597.041 171.397 597.217 172.198 597.217C172.823 597.217 173.346 597.095 173.766 596.851C174.186 596.597 174.518 596.245 174.762 595.796C175.006 595.337 175.177 594.805 175.274 594.199C175.382 593.594 175.436 592.935 175.436 592.222ZM186.231 584.15V600H182.35V584.15H186.231ZM182.086 580.005C182.086 579.429 182.281 578.95 182.672 578.569C183.072 578.188 183.609 577.998 184.283 577.998C184.957 577.998 185.489 578.188 185.88 578.569C186.28 578.95 186.48 579.429 186.48 580.005C186.48 580.571 186.28 581.045 185.88 581.426C185.489 581.807 184.957 581.997 184.283 581.997C183.609 581.997 183.072 581.807 182.672 581.426C182.281 581.045 182.086 580.571 182.086 580.005ZM194.024 577.5V600H190.143V577.5H194.024ZM201.817 584.15V600H197.936V584.15H201.817ZM197.672 580.005C197.672 579.429 197.867 578.95 198.258 578.569C198.658 578.188 199.195 577.998 199.869 577.998C200.543 577.998 201.075 578.188 201.466 578.569C201.866 578.95 202.066 579.429 202.066 580.005C202.066 580.571 201.866 581.045 201.466 581.426C201.075 581.807 200.543 581.997 199.869 581.997C199.195 581.997 198.658 581.807 198.258 581.426C197.867 581.045 197.672 580.571 197.672 580.005ZM213.009 584.15V586.934H203.927V584.15H213.009ZM206.358 580.254H210.24V595.43C210.24 595.898 210.304 596.26 210.431 596.514C210.558 596.768 210.748 596.938 211.002 597.026C211.256 597.114 211.559 597.158 211.91 597.158C212.164 597.158 212.398 597.144 212.613 597.114C212.828 597.085 213.009 597.056 213.155 597.026L213.17 599.927C212.848 600.034 212.481 600.122 212.071 600.19C211.671 600.259 211.217 600.293 210.709 600.293C209.84 600.293 209.078 600.146 208.424 599.854C207.77 599.551 207.262 599.067 206.9 598.403C206.539 597.729 206.358 596.841 206.358 595.737V580.254ZM220.23 598.242L224.479 584.15H228.624L222.267 602.402C222.12 602.793 221.93 603.218 221.695 603.677C221.471 604.136 221.168 604.57 220.787 604.98C220.406 605.4 219.928 605.742 219.352 606.006C218.785 606.27 218.097 606.401 217.286 606.401C216.935 606.401 216.622 606.377 216.349 606.328C216.075 606.279 215.787 606.216 215.484 606.138V603.237C215.582 603.247 215.694 603.252 215.821 603.252C215.958 603.262 216.075 603.267 216.173 603.267C216.739 603.267 217.208 603.198 217.579 603.062C217.95 602.935 218.248 602.725 218.473 602.432C218.707 602.148 218.902 601.777 219.059 601.318L220.23 598.242ZM218.136 584.15L221.725 595.825L222.354 599.912L219.688 600.396L213.961 584.15H218.136Z" fill="#411E1E"/>
<rect x="329" y="672" width="271" height="22" rx="11" fill="white"/>
<rect x="329" y="672" width="253" height="22" rx="11" fill="#411E1E"/>
<path d="M53.5166 679.983H57.5449C57.4375 681.409 57.042 682.674 56.3584 683.777C55.6748 684.871 54.7227 685.73 53.502 686.355C52.2812 686.98 50.8018 687.293 49.0635 687.293C47.7256 687.293 46.5195 687.059 45.4453 686.59C44.3809 686.111 43.4678 685.433 42.7061 684.554C41.9541 683.665 41.3779 682.601 40.9775 681.36C40.5771 680.11 40.377 678.709 40.377 677.156V675.53C40.377 673.978 40.582 672.576 40.9922 671.326C41.4023 670.076 41.9883 669.012 42.75 668.133C43.5215 667.244 44.4443 666.561 45.5186 666.082C46.6025 665.604 47.8135 665.364 49.1514 665.364C50.8896 665.364 52.3594 665.687 53.5605 666.331C54.7617 666.966 55.6943 667.84 56.3584 668.953C57.0225 670.066 57.4229 671.346 57.5596 672.791H53.5312C53.4531 671.893 53.2578 671.131 52.9453 670.506C52.6426 669.881 52.1836 669.407 51.5684 669.085C50.9629 668.753 50.1572 668.587 49.1514 668.587C48.3701 668.587 47.6816 668.733 47.0859 669.026C46.5 669.319 46.0117 669.759 45.6211 670.345C45.2305 670.921 44.9375 671.644 44.7422 672.513C44.5469 673.372 44.4492 674.368 44.4492 675.501V677.156C44.4492 678.24 44.5371 679.212 44.7129 680.071C44.8887 680.931 45.1621 681.658 45.5332 682.254C45.9043 682.85 46.3828 683.304 46.9688 683.616C47.5547 683.929 48.2529 684.085 49.0635 684.085C50.0498 684.085 50.8506 683.929 51.4658 683.616C52.0908 683.304 52.5645 682.845 52.8867 682.239C53.2188 681.634 53.4287 680.882 53.5166 679.983ZM69.8057 683.235V671.15H73.7021V687H70.04L69.8057 683.235ZM70.3037 679.954L71.5049 679.925C71.5049 680.989 71.3877 681.971 71.1533 682.869C70.9189 683.768 70.5527 684.549 70.0547 685.213C69.5664 685.867 68.9463 686.38 68.1943 686.751C67.4424 687.112 66.5537 687.293 65.5283 687.293C64.7471 687.293 64.0342 687.186 63.3896 686.971C62.7451 686.746 62.1885 686.399 61.7197 685.931C61.2607 685.452 60.9043 684.842 60.6504 684.1C60.3965 683.348 60.2695 682.444 60.2695 681.39V671.15H64.1367V681.419C64.1367 681.946 64.1953 682.386 64.3125 682.737C64.4395 683.089 64.6104 683.377 64.8252 683.602C65.0498 683.816 65.3086 683.973 65.6016 684.07C65.9043 684.158 66.2266 684.202 66.5684 684.202C67.5059 684.202 68.2432 684.017 68.7803 683.646C69.3271 683.265 69.7178 682.757 69.9521 682.122C70.1865 681.478 70.3037 680.755 70.3037 679.954ZM80.9971 674.388V687H77.1299V671.15H80.792L80.9971 674.388ZM85.8164 671.048L85.7578 674.651C85.543 674.612 85.2988 674.583 85.0254 674.563C84.7617 674.544 84.5127 674.534 84.2783 674.534C83.6826 674.534 83.1602 674.617 82.7109 674.783C82.2617 674.939 81.8857 675.169 81.583 675.472C81.29 675.774 81.0654 676.146 80.9092 676.585C80.7529 677.015 80.665 677.503 80.6455 678.05L79.8105 677.947C79.8105 676.941 79.9131 676.009 80.1182 675.149C80.3232 674.29 80.6211 673.538 81.0117 672.894C81.4023 672.249 81.8906 671.751 82.4766 671.399C83.0723 671.038 83.7559 670.857 84.5273 670.857C84.7422 670.857 84.9717 670.877 85.2158 670.916C85.4697 670.945 85.6699 670.989 85.8164 671.048ZM92.042 671.15V687H88.1602V671.15H92.042ZM87.8965 667.005C87.8965 666.429 88.0918 665.95 88.4824 665.569C88.8828 665.188 89.4199 664.998 90.0938 664.998C90.7676 664.998 91.2998 665.188 91.6904 665.569C92.0908 665.95 92.291 666.429 92.291 667.005C92.291 667.571 92.0908 668.045 91.6904 668.426C91.2998 668.807 90.7676 668.997 90.0938 668.997C89.4199 668.997 88.8828 668.807 88.4824 668.426C88.0918 668.045 87.8965 667.571 87.8965 667.005ZM95.0449 679.236V678.929C95.0449 677.767 95.2109 676.697 95.543 675.721C95.875 674.734 96.3584 673.88 96.9932 673.157C97.6279 672.435 98.4043 671.873 99.3223 671.473C100.24 671.062 101.285 670.857 102.457 670.857C103.648 670.857 104.703 671.062 105.621 671.473C106.549 671.873 107.33 672.435 107.965 673.157C108.6 673.88 109.083 674.734 109.415 675.721C109.747 676.697 109.913 677.767 109.913 678.929V679.236C109.913 680.389 109.747 681.458 109.415 682.444C109.083 683.421 108.6 684.275 107.965 685.008C107.33 685.73 106.554 686.292 105.636 686.692C104.718 687.093 103.668 687.293 102.486 687.293C101.314 687.293 100.265 687.093 99.3369 686.692C98.4092 686.292 97.6279 685.73 96.9932 685.008C96.3584 684.275 95.875 683.421 95.543 682.444C95.2109 681.458 95.0449 680.389 95.0449 679.236ZM98.9121 678.929V679.236C98.9121 679.93 98.9805 680.579 99.1172 681.185C99.2539 681.79 99.4639 682.322 99.7471 682.781C100.03 683.24 100.396 683.602 100.846 683.865C101.305 684.119 101.852 684.246 102.486 684.246C103.111 684.246 103.648 684.119 104.098 683.865C104.547 683.602 104.913 683.24 105.196 682.781C105.489 682.322 105.704 681.79 105.841 681.185C105.978 680.579 106.046 679.93 106.046 679.236V678.929C106.046 678.245 105.978 677.605 105.841 677.01C105.704 676.404 105.489 675.872 105.196 675.413C104.913 674.944 104.542 674.578 104.083 674.314C103.634 674.041 103.092 673.904 102.457 673.904C101.832 673.904 101.295 674.041 100.846 674.314C100.396 674.578 100.03 674.944 99.7471 675.413C99.4639 675.872 99.2539 676.404 99.1172 677.01C98.9805 677.605 98.9121 678.245 98.9121 678.929ZM121.441 682.664C121.441 682.332 121.354 682.034 121.178 681.771C121.002 681.507 120.67 681.268 120.182 681.053C119.703 680.828 119 680.618 118.072 680.423C117.252 680.247 116.495 680.027 115.802 679.764C115.108 679.5 114.513 679.183 114.015 678.812C113.517 678.431 113.126 677.986 112.843 677.479C112.569 676.961 112.433 676.365 112.433 675.691C112.433 675.037 112.574 674.422 112.857 673.846C113.141 673.26 113.551 672.747 114.088 672.308C114.625 671.858 115.279 671.507 116.051 671.253C116.822 670.989 117.691 670.857 118.658 670.857C120.006 670.857 121.163 671.077 122.13 671.517C123.106 671.956 123.854 672.562 124.371 673.333C124.889 674.095 125.147 674.954 125.147 675.911H121.28C121.28 675.491 121.183 675.11 120.987 674.769C120.802 674.427 120.514 674.153 120.123 673.948C119.732 673.733 119.239 673.626 118.644 673.626C118.106 673.626 117.652 673.714 117.281 673.89C116.92 674.065 116.646 674.295 116.461 674.578C116.275 674.861 116.183 675.174 116.183 675.516C116.183 675.77 116.231 675.999 116.329 676.204C116.437 676.399 116.607 676.58 116.842 676.746C117.076 676.912 117.394 677.063 117.794 677.2C118.204 677.337 118.707 677.469 119.303 677.596C120.484 677.83 121.515 678.143 122.394 678.533C123.282 678.914 123.976 679.422 124.474 680.057C124.972 680.691 125.221 681.502 125.221 682.488C125.221 683.191 125.069 683.836 124.767 684.422C124.464 684.998 124.024 685.501 123.448 685.931C122.872 686.36 122.184 686.697 121.383 686.941C120.582 687.176 119.679 687.293 118.673 687.293C117.218 687.293 115.987 687.034 114.981 686.517C113.976 685.989 113.214 685.325 112.696 684.524C112.179 683.714 111.92 682.874 111.92 682.005H115.626C115.655 682.62 115.821 683.113 116.124 683.484C116.427 683.855 116.808 684.124 117.267 684.29C117.735 684.446 118.229 684.524 118.746 684.524C119.332 684.524 119.825 684.446 120.226 684.29C120.626 684.124 120.929 683.904 121.134 683.631C121.339 683.348 121.441 683.025 121.441 682.664ZM132.267 671.15V687H128.385V671.15H132.267ZM128.121 667.005C128.121 666.429 128.316 665.95 128.707 665.569C129.107 665.188 129.645 664.998 130.318 664.998C130.992 664.998 131.524 665.188 131.915 665.569C132.315 665.95 132.516 666.429 132.516 667.005C132.516 667.571 132.315 668.045 131.915 668.426C131.524 668.807 130.992 668.997 130.318 668.997C129.645 668.997 129.107 668.807 128.707 668.426C128.316 668.045 128.121 667.571 128.121 667.005ZM143.458 671.15V673.934H134.376V671.15H143.458ZM136.808 667.254H140.689V682.43C140.689 682.898 140.753 683.26 140.88 683.514C141.007 683.768 141.197 683.938 141.451 684.026C141.705 684.114 142.008 684.158 142.359 684.158C142.613 684.158 142.848 684.144 143.062 684.114C143.277 684.085 143.458 684.056 143.604 684.026L143.619 686.927C143.297 687.034 142.931 687.122 142.521 687.19C142.12 687.259 141.666 687.293 141.158 687.293C140.289 687.293 139.527 687.146 138.873 686.854C138.219 686.551 137.711 686.067 137.35 685.403C136.988 684.729 136.808 683.841 136.808 682.737V667.254ZM150.68 685.242L154.928 671.15H159.073L152.716 689.402C152.569 689.793 152.379 690.218 152.145 690.677C151.92 691.136 151.617 691.57 151.236 691.98C150.855 692.4 150.377 692.742 149.801 693.006C149.234 693.27 148.546 693.401 147.735 693.401C147.384 693.401 147.071 693.377 146.798 693.328C146.524 693.279 146.236 693.216 145.934 693.138V690.237C146.031 690.247 146.144 690.252 146.271 690.252C146.407 690.262 146.524 690.267 146.622 690.267C147.188 690.267 147.657 690.198 148.028 690.062C148.399 689.935 148.697 689.725 148.922 689.432C149.156 689.148 149.352 688.777 149.508 688.318L150.68 685.242ZM148.585 671.15L152.174 682.825L152.804 686.912L150.138 687.396L144.41 671.15H148.585Z" fill="#411E1E"/>
</svg>
